# File created by Blade
# Date/Time:  Mon Sep 22 16:09:39 2014
# Frame Rate: 120.000 fps
#------------------------------------------------------
:FULLY-SPECIFIED
:DEGREES
1991
root 2.482986 37.006729 2.398877 1.555504 -0.124543 1.603700
RightUpLeg 6.602127 -6.634776 -2.188168
RightLeg -4.340811 -0.000000 0.000000
RightFoot -14.269171 -17.574069 16.268805
RightToeBase 14.128548 -0.000000 -0.000000
LeftUpLeg 3.906439 -0.733264 2.115751
LeftLeg -2.195110 -0.000000 0.000000
LeftFoot -9.483849 12.462108 -16.969144
LeftToeBase 9.716702 -0.000000 -0.000000
Spine -0.747952 -6.273202 -1.237197
RightShoulder -3.025412 -23.293971 -3.138676
RightArm 26.545806 28.906647 98.961671
RightForeArm 92.795563 -0.000000 9.262124
RightHand 5.223776 -0.000000 -37.288133
RightHandThumb1 -24.326973 -0.000000 -32.862282
LeftShoulder -23.248674 38.442613 -3.144737
LeftArm 40.501606 16.209213 -65.841395
LeftForeArm 20.869303 -0.000000 25.985518
LeftHand -11.960429 0.000000 -13.994152
LeftHandThumb1 -26.253704 0.000000 33.147579
Head 4.261477 2.643341 5.433833
1992
root 2.489825 37.008563 2.383055 1.656116 -0.276819 1.630289
RightUpLeg 6.511073 -6.700846 -2.228201
RightLeg -4.455187 -0.000000 0.000000
RightFoot -14.151070 -17.416017 16.226312
RightToeBase 14.233499 -0.000000 -0.000000
LeftUpLeg 3.790550 -0.707608 2.069273
LeftLeg -2.169533 -0.000000 0.000000
LeftFoot -9.510331 12.581933 -17.022140
LeftToeBase 9.731664 -0.000000 -0.000000
Spine -0.808395 -6.105072 -1.252042
RightShoulder -3.067236 -23.218887 -3.073067
RightArm 26.599234 29.278922 98.813760
RightForeArm 92.502999 -0.000000 10.149770
RightHand 5.195293 -0.000000 -37.369126
RightHandThumb1 -24.326973 -0.000000 -32.862282
LeftShoulder -23.139562 38.322683 -3.081547
LeftArm 40.491724 16.207788 -65.800114
LeftForeArm 22.220138 -0.000000 25.809013
LeftHand -11.739372 -0.000000 -14.766687
LeftHandThumb1 -26.253704 0.000000 33.147579
Head 4.294429 2.553635 5.521479
1993
root 2.500180 37.011339 2.361571 1.813434 -0.446167 1.675896
RightUpLeg 6.363262 -6.720065 -2.286787
RightLeg -4.594574 -0.000000 0.000000
RightFoot -14.025786 -17.272470 16.197901
RightToeBase 14.292750 -0.000000 -0.000000
LeftUpLeg 3.595306 -0.663435 1.997913
LeftLeg -2.112382 -0.000000 0.000000
LeftFoot -9.536894 12.688851 -17.067526
LeftToeBase 9.712085 -0.000000 -0.000000
Spine -0.942357 -5.940730 -1.263944
RightShoulder -3.083739 -23.097355 -3.060069
RightArm 26.596406 29.705915 98.705200
RightForeArm 92.237247 0.000000 11.187012
RightHand 5.306726 -0.000000 -37.313731
RightHandThumb1 -24.326973 -0.000000 -32.862282
LeftShoulder -23.041396 38.222734 -3.064645
LeftArm 40.421110 16.206978 -65.734261
LeftForeArm 23.305301 0.000000 25.722044
LeftHand -11.772517 0.000000 -15.219560
LeftHandThumb1 -26.253704 0.000000 33.147579
Head 4.358709 2.437872 5.587646
1994
root 2.511625 37.014400 2.339679 1.964727 -0.634425 1.720976
RightUpLeg 6.205827 -6.724312 -2.341941
RightLeg -4.716343 -0.000000 0.000000
RightFoot -13.887408 -17.169198 16.134588
RightToeBase 14.319889 -0.000000 -0.000000
LeftUpLeg 3.403382 -0.592648 1.923799
LeftLeg -2.048468 -0.000000 0.000000
LeftFoot -9.562207 12.806890 -17.112028
LeftToeBase 9.714335 -0.000000 -0.000000
Spine -1.070626 -5.795798 -1.282490
RightShoulder -3.071948 -23.008093 -3.092571
RightArm 26.677313 30.068416 98.621628
RightForeArm 92.010386 -0.000000 12.128862
RightHand 5.261739 -0.000000 -36.522833
RightHandThumb1 -24.326973 -0.000000 -32.862282
LeftShoulder -22.954737 38.148211 -3.021069
LeftArm 40.365296 16.074960 -65.860267
LeftForeArm 24.289696 -0.000000 25.474712
LeftHand -11.814314 -0.000000 -16.110835
LeftHandThumb1 -26.253704 0.000000 33.147579
Head 4.446824 2.346061 5.648748
1995
root 2.520319 37.017986 2.320990 2.090533 -0.810879 1.756347
RightUpLeg 6.078940 -6.793016 -2.395870
RightLeg -4.827314 -0.000000 0.000000
RightFoot -13.751543 -16.968754 16.096017
RightToeBase 14.383213 -0.000000 -0.000000
LeftUpLeg 3.238726 -0.489083 1.866762
LeftLeg -1.980779 -0.000000 0.000000
LeftFoot -9.585446 12.868913 -17.163032
LeftToeBase 9.731142 -0.000000 -0.000000
Spine -1.180991 -5.683017 -1.285660
RightShoulder -3.028945 -22.938606 -3.164565
RightArm 26.727131 30.382149 98.541194
RightForeArm 91.947922 -0.000000 13.209989
RightHand 5.142888 -0.000000 -36.484705
RightHandThumb1 -24.326973 -0.000000 -32.862282
LeftShoulder -22.889164 38.128512 -3.011520
LeftArm 40.332671 15.931639 -65.952933
LeftForeArm 24.660835 -0.000000 25.218804
LeftHand -11.920998 0.000000 -16.013777
LeftHandThumb1 -26.253704 0.000000 33.147579
Head 4.578791 2.356841 5.697739
1996
root 2.528526 37.021301 2.304803 2.196911 -0.986350 1.779566
RightUpLeg 5.975707 -6.853703 -2.436421
RightLeg -4.944518 -0.000000 0.000000
RightFoot -13.608066 -16.766276 16.113303
RightToeBase 14.414515 -0.000000 -0.000000
LeftUpLeg 3.101659 -0.375925 1.821905
LeftLeg -1.924121 -0.000000 0.000000
LeftFoot -9.599471 12.934826 -17.175427
LeftToeBase 9.740402 -0.000000 -0.000000
Spine -1.269595 -5.604179 -1.287644
RightShoulder -2.968391 -22.868042 -3.246595
RightArm 26.806835 30.665005 98.470450
RightForeArm 91.812827 -0.000000 14.333853
RightHand 5.159740 -0.000000 -35.746034
RightHandThumb1 -24.326973 -0.000000 -32.862282
LeftShoulder -22.884866 38.167089 -3.036883
LeftArm 40.348199 15.771616 -66.077143
LeftForeArm 24.931819 -0.000000 24.926024
LeftHand -12.079215 -0.000000 -16.069368
LeftHandThumb1 -26.253704 0.000000 33.147579
Head 4.705008 2.282870 5.716186
